<mxfile host="app.diagrams.net" modified="2021-06-27T08:10:38.281Z" agent="5.0 (Macintosh; Intel Mac OS X 10_15_7) AppleWebKit/537.36 (KHTML, like Gecko) Chrome/91.0.4472.106 Safari/537.36" etag="jNcyV8xY7SGcXK6TO1wx" version="14.7.7" type="github">
  <diagram id="C5RBs43oDa-KdzZeNtuy" name="秘钥交换">
    <mxGraphModel dx="1188" dy="641" grid="1" gridSize="10" guides="1" tooltips="1" connect="1" arrows="1" fold="1" page="1" pageScale="1" pageWidth="827" pageHeight="1169" math="0" shadow="0">
      <root>
        <mxCell id="WIyWlLk6GJQsqaUBKTNV-0" />
        <mxCell id="WIyWlLk6GJQsqaUBKTNV-1" parent="WIyWlLk6GJQsqaUBKTNV-0" />
        <mxCell id="4nAFIsNWsInhG6wNa1qs-9" style="edgeStyle=orthogonalEdgeStyle;rounded=0;orthogonalLoop=1;jettySize=auto;html=1;fontSize=16;" edge="1" parent="WIyWlLk6GJQsqaUBKTNV-1" target="4nAFIsNWsInhG6wNa1qs-7">
          <mxGeometry relative="1" as="geometry">
            <mxPoint x="115" y="380" as="sourcePoint" />
          </mxGeometry>
        </mxCell>
        <mxCell id="4nAFIsNWsInhG6wNa1qs-0" value="Alice" style="shape=umlActor;verticalLabelPosition=bottom;verticalAlign=top;html=1;outlineConnect=0;fontSize=16;" vertex="1" parent="WIyWlLk6GJQsqaUBKTNV-1">
          <mxGeometry x="100" y="290" width="30" height="60" as="geometry" />
        </mxCell>
        <mxCell id="4nAFIsNWsInhG6wNa1qs-1" value="Bob" style="shape=umlActor;verticalLabelPosition=bottom;verticalAlign=top;html=1;outlineConnect=0;fontSize=16;" vertex="1" parent="WIyWlLk6GJQsqaUBKTNV-1">
          <mxGeometry x="510" y="290" width="30" height="60" as="geometry" />
        </mxCell>
        <mxCell id="4nAFIsNWsInhG6wNa1qs-5" value="" style="endArrow=classic;startArrow=classic;html=1;fontSize=16;" edge="1" parent="WIyWlLk6GJQsqaUBKTNV-1">
          <mxGeometry width="50" height="50" relative="1" as="geometry">
            <mxPoint x="180" y="330" as="sourcePoint" />
            <mxPoint x="480" y="330" as="targetPoint" />
          </mxGeometry>
        </mxCell>
        <mxCell id="4nAFIsNWsInhG6wNa1qs-6" value="约定二元组（p，q）" style="edgeLabel;html=1;align=center;verticalAlign=middle;resizable=0;points=[];fontSize=16;" vertex="1" connectable="0" parent="4nAFIsNWsInhG6wNa1qs-5">
          <mxGeometry x="-0.065" y="1" relative="1" as="geometry">
            <mxPoint as="offset" />
          </mxGeometry>
        </mxCell>
        <mxCell id="4nAFIsNWsInhG6wNa1qs-13" style="edgeStyle=orthogonalEdgeStyle;rounded=0;orthogonalLoop=1;jettySize=auto;html=1;exitX=0.5;exitY=1;exitDx=0;exitDy=0;entryX=0.514;entryY=-0.117;entryDx=0;entryDy=0;entryPerimeter=0;fontSize=16;" edge="1" parent="WIyWlLk6GJQsqaUBKTNV-1" source="4nAFIsNWsInhG6wNa1qs-7" target="4nAFIsNWsInhG6wNa1qs-12">
          <mxGeometry relative="1" as="geometry" />
        </mxCell>
        <mxCell id="4nAFIsNWsInhG6wNa1qs-7" value="选择[1,p-1]的随机数da" style="rounded=1;whiteSpace=wrap;html=1;fontSize=16;" vertex="1" parent="WIyWlLk6GJQsqaUBKTNV-1">
          <mxGeometry x="57" y="440" width="115" height="40" as="geometry" />
        </mxCell>
        <mxCell id="4nAFIsNWsInhG6wNa1qs-10" style="edgeStyle=orthogonalEdgeStyle;rounded=0;orthogonalLoop=1;jettySize=auto;html=1;fontSize=16;" edge="1" parent="WIyWlLk6GJQsqaUBKTNV-1" target="4nAFIsNWsInhG6wNa1qs-11">
          <mxGeometry relative="1" as="geometry">
            <mxPoint x="525.5" y="380" as="sourcePoint" />
          </mxGeometry>
        </mxCell>
        <mxCell id="4nAFIsNWsInhG6wNa1qs-11" value="选择[1,p-1]的随机数db" style="rounded=1;whiteSpace=wrap;html=1;fontSize=16;" vertex="1" parent="WIyWlLk6GJQsqaUBKTNV-1">
          <mxGeometry x="467.5" y="440" width="115" height="40" as="geometry" />
        </mxCell>
        <mxCell id="4nAFIsNWsInhG6wNa1qs-22" style="edgeStyle=orthogonalEdgeStyle;rounded=0;orthogonalLoop=1;jettySize=auto;html=1;exitX=0.5;exitY=1;exitDx=0;exitDy=0;entryX=0.5;entryY=0;entryDx=0;entryDy=0;fontSize=16;" edge="1" parent="WIyWlLk6GJQsqaUBKTNV-1" source="4nAFIsNWsInhG6wNa1qs-12" target="4nAFIsNWsInhG6wNa1qs-17">
          <mxGeometry relative="1" as="geometry" />
        </mxCell>
        <mxCell id="4nAFIsNWsInhG6wNa1qs-12" value="计算Pa=q^da mod p" style="rounded=1;whiteSpace=wrap;html=1;fontSize=16;" vertex="1" parent="WIyWlLk6GJQsqaUBKTNV-1">
          <mxGeometry x="36" y="520" width="152" height="40" as="geometry" />
        </mxCell>
        <mxCell id="4nAFIsNWsInhG6wNa1qs-14" style="edgeStyle=orthogonalEdgeStyle;rounded=0;orthogonalLoop=1;jettySize=auto;html=1;exitX=0.5;exitY=1;exitDx=0;exitDy=0;entryX=0.514;entryY=-0.117;entryDx=0;entryDy=0;entryPerimeter=0;fontSize=16;" edge="1" parent="WIyWlLk6GJQsqaUBKTNV-1" target="4nAFIsNWsInhG6wNa1qs-15">
          <mxGeometry relative="1" as="geometry">
            <mxPoint x="528.5" y="480" as="sourcePoint" />
          </mxGeometry>
        </mxCell>
        <mxCell id="4nAFIsNWsInhG6wNa1qs-23" style="edgeStyle=orthogonalEdgeStyle;rounded=0;orthogonalLoop=1;jettySize=auto;html=1;exitX=0.5;exitY=1;exitDx=0;exitDy=0;entryX=0.5;entryY=0;entryDx=0;entryDy=0;fontSize=16;" edge="1" parent="WIyWlLk6GJQsqaUBKTNV-1" source="4nAFIsNWsInhG6wNa1qs-15" target="4nAFIsNWsInhG6wNa1qs-18">
          <mxGeometry relative="1" as="geometry" />
        </mxCell>
        <mxCell id="4nAFIsNWsInhG6wNa1qs-15" value="计算Pb=q^db mod p" style="rounded=1;whiteSpace=wrap;html=1;fontSize=16;" vertex="1" parent="WIyWlLk6GJQsqaUBKTNV-1">
          <mxGeometry x="450" y="520" width="152" height="40" as="geometry" />
        </mxCell>
        <mxCell id="4nAFIsNWsInhG6wNa1qs-27" style="edgeStyle=orthogonalEdgeStyle;rounded=0;orthogonalLoop=1;jettySize=auto;html=1;exitX=0.5;exitY=1;exitDx=0;exitDy=0;entryX=0.5;entryY=0;entryDx=0;entryDy=0;fontSize=16;" edge="1" parent="WIyWlLk6GJQsqaUBKTNV-1" source="4nAFIsNWsInhG6wNa1qs-17" target="4nAFIsNWsInhG6wNa1qs-25">
          <mxGeometry relative="1" as="geometry" />
        </mxCell>
        <mxCell id="4nAFIsNWsInhG6wNa1qs-17" value="得到Pb" style="rounded=1;whiteSpace=wrap;html=1;fontSize=16;" vertex="1" parent="WIyWlLk6GJQsqaUBKTNV-1">
          <mxGeometry x="36.5" y="620" width="152" height="40" as="geometry" />
        </mxCell>
        <mxCell id="4nAFIsNWsInhG6wNa1qs-28" style="edgeStyle=orthogonalEdgeStyle;rounded=0;orthogonalLoop=1;jettySize=auto;html=1;exitX=0.5;exitY=1;exitDx=0;exitDy=0;entryX=0.5;entryY=0;entryDx=0;entryDy=0;fontSize=16;" edge="1" parent="WIyWlLk6GJQsqaUBKTNV-1" source="4nAFIsNWsInhG6wNa1qs-18" target="4nAFIsNWsInhG6wNa1qs-26">
          <mxGeometry relative="1" as="geometry" />
        </mxCell>
        <mxCell id="4nAFIsNWsInhG6wNa1qs-18" value="得到Pb" style="rounded=1;whiteSpace=wrap;html=1;fontSize=16;" vertex="1" parent="WIyWlLk6GJQsqaUBKTNV-1">
          <mxGeometry x="450" y="620" width="152" height="40" as="geometry" />
        </mxCell>
        <mxCell id="4nAFIsNWsInhG6wNa1qs-24" value="交换Pa和Pb" style="endArrow=classic;startArrow=classic;html=1;fontSize=16;" edge="1" parent="WIyWlLk6GJQsqaUBKTNV-1">
          <mxGeometry width="50" height="50" relative="1" as="geometry">
            <mxPoint x="120" y="590" as="sourcePoint" />
            <mxPoint x="510" y="590" as="targetPoint" />
          </mxGeometry>
        </mxCell>
        <mxCell id="4nAFIsNWsInhG6wNa1qs-25" value="计算秘钥&lt;br&gt;S=Pb^da mod p" style="rounded=1;whiteSpace=wrap;html=1;fontSize=16;" vertex="1" parent="WIyWlLk6GJQsqaUBKTNV-1">
          <mxGeometry x="36" y="710" width="152" height="40" as="geometry" />
        </mxCell>
        <mxCell id="4nAFIsNWsInhG6wNa1qs-26" value="计算秘钥&lt;br&gt;S=Pa^db mod p" style="rounded=1;whiteSpace=wrap;html=1;fontSize=16;" vertex="1" parent="WIyWlLk6GJQsqaUBKTNV-1">
          <mxGeometry x="450" y="710" width="152" height="40" as="geometry" />
        </mxCell>
      </root>
    </mxGraphModel>
  </diagram>
</mxfile>
